<svg width="46" height="32" viewBox="0 0 46 32" fill="none" xmlns="http://www.w3.org/2000/svg">
<path d="M45.5371 6.90182C45.5371 6.90182 45.0888 3.76727 43.7073 2.38545C41.9585 0.574545 39.9965 0.567273 39.1 0.458182C32.6629 8.66977e-08 23.0073 0 23.0073 0H22.9853C22.9853 0 13.3297 8.66977e-08 6.89265 0.458182C5.99617 0.567273 4.03419 0.574545 2.2853 2.38545C0.903834 3.76727 0.455591 6.90182 0.455591 6.90182C0.455591 6.90182 -8.75979e-09 10.5818 -8.75979e-09 14.2691V17.7236C-8.75979e-09 21.4036 0.462939 25.0836 0.462939 25.0836C0.462939 25.0836 0.911182 28.2182 2.29265 29.6C4.04153 31.4109 6.34153 31.3527 7.36294 31.5418C11.0371 31.8909 23 32 23 32C23 32 32.6629 31.9855 39.1 31.5273C39.9965 31.4182 41.9585 31.4109 43.7073 29.6C45.0888 28.2182 45.5371 25.0836 45.5371 25.0836C45.5371 25.0836 46 21.4036 46 17.7236V14.2691C46 10.5818 45.5371 6.90182 45.5371 6.90182Z" fill="black" fill-opacity="0.7"/>
<path d="M18.2534 9.11279V21.8982L30.6793 15.5273L18.2534 9.11279Z" fill="#EAEAEA"/>
</svg>
