<svg width="76" height="53" viewBox="0 0 76 53" fill="none" xmlns="http://www.w3.org/2000/svg">
<g clip-path="url(#clip0)">
<path d="M74.439 11.5899C74.439 11.5899 73.7142 6.44728 71.4806 4.18024C68.6529 1.20921 65.4807 1.19728 64.0312 1.01831C53.6235 0.266602 38.0119 0.266602 38.0119 0.266602H37.9762C37.9762 0.266602 22.3646 0.266602 11.9569 1.01831C10.5074 1.19728 7.33516 1.20921 4.50749 4.18024C2.27386 6.44728 1.54912 11.5899 1.54912 11.5899C1.54912 11.5899 0.8125 17.6274 0.8125 23.6768V29.3444C0.8125 35.3819 1.561 41.4194 1.561 41.4194C1.561 41.4194 2.28574 46.562 4.51937 48.8291C7.34704 51.8001 11.0658 51.7047 12.7173 52.0149C18.6577 52.5876 38 52.7666 38 52.7666C38 52.7666 53.6235 52.7427 64.0312 51.991C65.4807 51.812 68.6529 51.8001 71.4806 48.8291C73.7142 46.562 74.439 41.4194 74.439 41.4194C74.439 41.4194 75.1875 35.3819 75.1875 29.3444V23.6768C75.1875 17.6274 74.439 11.5899 74.439 11.5899Z" fill="black" fill-opacity="0.5"/>
<path d="M30.3247 15.2168V36.1929L50.4155 25.7407L30.3247 15.2168Z" fill="#EAEAEA"/>
</g>
<defs>
<clipPath id="clip0">
<rect width="74.375" height="52.4666" fill="white" transform="translate(0.8125 0.266602)"/>
</clipPath>
</defs>
</svg>
